Normalized EMG Linear Envelopes
nRows=257
nColumns=4

endheader
time	 med_gas_r	  soleus_r	 tib_ant_r	
7.68448	  0.014624	  0.041184	  0.004245	
7.71774	  0.015101	  0.043813	  0.004221	
7.75101	  0.015523	  0.046809	  0.004207	
7.78427	  0.015842	  0.050316	  0.004210	
7.81754	  0.016035	  0.054311	  0.004232	
7.85081	  0.016109	  0.058489	  0.004266	
7.88407	  0.016105	  0.062223	  0.004302	
7.91734	  0.016073	  0.064734	  0.004335	
7.9506	  0.016043	  0.065477	  0.004363	
7.98387	  0.016012	  0.064469	  0.004391	
8.01714	  0.015954	  0.062293	  0.004429	
8.0504	  0.015854	  0.059722	  0.004483	
8.08367	  0.015729	  0.057324	  0.004548	
8.11694	  0.015615	  0.055326	  0.004606	
8.1502	  0.015541	  0.053754	  0.004637	
8.18347	  0.015515	  0.052620	  0.004621	
8.21673	  0.015536	  0.051950	  0.004551	
8.25	  0.015613	  0.051720	  0.004436	
8.28327	  0.015762	  0.051783	  0.004297	
8.31653	  0.015981	  0.051879	  0.004160	
8.3498	  0.016221	  0.051699	  0.004053	
8.38306	  0.016405	  0.050982	  0.003998	
8.41633	  0.016474	  0.049605	  0.004004	
8.4496	  0.016420	  0.047640	  0.004061	
8.48286	  0.016279	  0.045327	  0.004151	
8.51613	  0.016091	  0.042982	  0.004249	
8.5494	  0.015879	  0.040891	  0.004337	
8.58266	  0.015655	  0.039244	  0.004409	
8.61593	  0.015447	  0.038130	  0.004464	
8.64919	  0.015306	  0.037576	  0.004511	
8.68246	  0.015294	  0.037598	  0.004556	
8.71573	  0.015455	  0.038231	  0.004600	
8.74899	  0.015799	  0.039496	  0.004637	
8.78226	  0.016300	  0.041320	  0.004656	
8.81552	  0.016912	  0.043478	  0.004644	
8.84879	  0.017567	  0.045595	  0.004598	
8.88206	  0.018184	  0.047247	  0.004523	
8.91532	  0.018682	  0.048085	  0.004434	
8.94859	  0.018994	  0.047945	  0.004351	
8.98185	  0.019082	  0.046918	  0.004291	
9.01512	  0.018948	  0.045325	  0.004260	
9.04839	  0.018643	  0.043595	  0.004250	
9.08165	  0.018234	  0.042062	  0.004235	
9.11492	  0.017779	  0.040819	  0.004185	
9.14819	  0.017297	  0.039744	  0.004065	
9.18145	  0.016791	  0.038671	  0.003851	
9.21472	  0.016273	  0.037567	  0.003541	
9.24798	  0.015801	  0.036581	  0.003161	
9.28125	  0.015469	  0.035965	  0.002759	
9.31452	  0.015370	  0.035948	  0.002409	
9.34778	  0.015549	  0.036662	  0.002210	
9.38105	  0.015977	  0.038118	  0.002295	
9.41431	  0.016561	  0.040213	  0.002833	
9.44758	  0.017188	  0.042737	  0.004032	
9.48085	  0.017768	  0.045387	  0.006128	
9.51411	  0.018259	  0.047804	  0.009348	
9.54738	  0.018677	  0.049676	  0.013842	
9.58065	  0.019102	  0.050832	  0.019588	
9.61391	  0.019665	  0.051279	  0.026299	
9.64718	  0.020497	  0.051154	  0.033433	
9.68044	  0.021670	  0.050665	  0.040362	
9.71371	  0.023167	  0.050067	  0.046685	
9.74698	  0.024920	  0.049651	  0.052539	
9.78024	  0.026892	  0.049675	  0.058665	
9.81351	  0.029101	  0.050281	  0.066118	
9.84677	  0.031578	  0.051477	  0.075713	
9.88004	  0.034269	  0.053231	  0.087526	
9.91331	  0.036996	  0.055559	  0.100774	
9.94657	  0.039527	  0.058504	  0.114227	
9.97984	  0.041708	  0.062050	  0.126902	
10.0131	  0.043551	  0.066068	  0.138536	
10.0464	  0.045192	  0.070370	  0.149508	
10.0796	  0.046792	  0.074805	  0.160364	
10.1129	  0.048481	  0.079304	  0.171443	
10.1462	  0.050380	  0.083829	  0.182850	
10.1794	  0.052628	  0.088296	  0.194644	
10.2127	  0.055376	  0.092517	  0.207045	
10.246	  0.058747	  0.096213	  0.220506	
10.2792	  0.062777	  0.099044	  0.235594	
10.3125	  0.067347	  0.100677	  0.252636	
10.3458	  0.072082	  0.100917	  0.271262	
10.379	  0.076344	  0.099839	  0.290159	
10.4123	  0.079411	  0.097845	  0.307328	
10.4456	  0.080811	  0.095540	  0.320869	
10.4788	  0.080597	  0.093541	  0.329912	
10.5121	  0.079324	  0.092355	  0.335117	
10.5454	  0.077765	  0.092360	  0.338393	
10.5786	  0.076558	  0.093812	  0.342092	
10.6119	  0.075990	  0.096781	  0.348207	
10.6452	  0.075995	  0.101064	  0.357928	
10.6784	  0.076320	  0.106132	  0.371539	
10.7117	  0.076756	  0.111198	  0.388415	
10.745	  0.077308	  0.115409	  0.407081	
10.7782	  0.078199	  0.118114	  0.425500	
10.8115	  0.079729	  0.119110	  0.441718	
10.8448	  0.082120	  0.118700	  0.454662	
10.878	  0.085452	  0.117530	  0.464622	
10.9113	  0.089666	  0.116339	  0.473048	
10.9446	  0.094588	  0.115788	  0.481662	
10.9778	  0.099940	  0.116380	  0.491297	
11.0111	  0.105382	  0.118358	  0.501215	
11.0444	  0.110549	  0.121541	  0.509504	
11.0776	  0.115051	  0.125291	  0.514399	
11.1109	  0.118484	  0.128792	  0.515541	
11.1442	  0.120511	  0.131541	  0.514186	
11.1774	  0.121014	  0.133640	  0.512428	
11.2107	  0.120199	  0.135615	  0.512278	
11.244	  0.118543	  0.137875	  0.515233	
11.2772	  0.116623	  0.140326	  0.522257	
11.3105	  0.114940	  0.142478	  0.533785	
11.3437	  0.113820	  0.143892	  0.549548	
11.377	  0.113396	  0.144486	  0.568326	
11.4103	  0.113626	  0.144468	  0.587795	
11.4435	  0.114316	  0.144067	  0.604734	
11.4768	  0.115146	  0.143416	  0.615780	
11.5101	  0.115777	  0.142685	  0.618558	
11.5433	  0.116006	  0.142211	  0.612654	
11.5766	  0.115891	  0.142410	  0.599788	
11.6099	  0.115705	  0.143524	  0.583028	
11.6431	  0.115718	  0.145428	  0.565542	
11.6764	  0.116001	  0.147680	  0.549676	
11.7097	  0.116376	  0.149731	  0.536730	
11.7429	  0.116540	  0.151129	  0.527238	
11.7762	  0.116215	  0.151578	  0.521303	
11.8095	  0.115269	  0.150923	  0.518735	
11.8427	  0.113750	  0.149181	  0.519002	
11.876	  0.111868	  0.146619	  0.521148	
11.9093	  0.109881	  0.143725	  0.523881	
11.9425	  0.107980	  0.141013	  0.525941	
11.9758	  0.106268	  0.138782	  0.526638	
12.0091	  0.104849	  0.137046	  0.526254	
12.0423	  0.103915	  0.135658	  0.525896	
12.0756	  0.103686	  0.134487	  0.526747	
12.1089	  0.104220	  0.133499	  0.529228	
12.1421	  0.105282	  0.132746	  0.532757	
12.1754	  0.106436	  0.132333	  0.536288	
12.2087	  0.107342	  0.132360	  0.539068	
12.2419	  0.108015	  0.132824	  0.540904	
12.2752	  0.108800	  0.133520	  0.541848	
12.3085	  0.110106	  0.134105	  0.541888	
12.3417	  0.112134	  0.134377	  0.541066	
12.375	  0.114808	  0.134585	  0.539853	
12.4083	  0.117868	  0.135442	  0.539231	
12.4415	  0.120966	  0.137720	  0.540318	
12.4748	  0.123737	  0.141697	  0.543919	
12.5081	  0.125898	  0.146923	  0.550382	
12.5413	  0.127407	  0.152515	  0.559723	
12.5746	  0.128505	  0.157712	  0.571712	
12.6079	  0.129562	  0.162205	  0.585809	
12.6411	  0.130814	  0.166014	  0.601090	
12.6744	  0.132212	  0.169129	  0.616320	
12.7077	  0.133504	  0.171326	  0.630163	
12.7409	  0.134438	  0.172354	  0.641475	
12.7742	  0.134900	  0.172277	  0.649677	
12.8075	  0.134906	  0.171602	  0.655036	
12.8407	  0.134523	  0.171010	  0.658518	
12.874	  0.133820	  0.170943	  0.661149	
12.9073	  0.132852	  0.171434	  0.663378	
12.9405	  0.131660	  0.172312	  0.665000	
12.9738	  0.130272	  0.173477	  0.665476	
13.0071	  0.128707	  0.174916	  0.663982	
13.0403	  0.126998	  0.176465	  0.659164	
13.0736	  0.125209	  0.177639	  0.649363	
13.1069	  0.123459	  0.177748	  0.633793	
13.1401	  0.121909	  0.176252	  0.613775	
13.1734	  0.120725	  0.173146	  0.592702	
13.2067	  0.120000	  0.169143	  0.574562	
13.2399	  0.119706	  0.165529	  0.562271	
13.2732	  0.119706	  0.163642	  0.556938	
13.3065	  0.119816	  0.164228	  0.557945	
13.3397	  0.119827	  0.167053	  0.563075	
13.373	  0.119459	  0.171023	  0.568556	
13.4062	  0.118329	  0.174625	  0.569633	
13.4395	  0.116061	  0.176345	  0.562080	
13.4728	  0.112515	  0.174938	  0.544015	
13.506	  0.107951	  0.169692	  0.516773	
13.5393	  0.102915	  0.160727	  0.484141	
13.5726	  0.097898	  0.149095	  0.450463	
13.6058	  0.093034	  0.136448	  0.418889	
13.6391	  0.088097	  0.124380	  0.390720	
13.6724	  0.082801	  0.113896	  0.365843	
13.7056	  0.077129	  0.105305	  0.343543	
13.7389	  0.071407	  0.098458	  0.323048	
13.7722	  0.066123	  0.093038	  0.303679	
13.8054	  0.061644	  0.088683	  0.284896	
13.8387	  0.058055	  0.084983	  0.266425	
13.872	  0.055177	  0.081467	  0.248293	
13.9052	  0.052694	  0.077699	  0.230539	
13.9385	  0.050306	  0.073452	  0.212832	
13.9718	  0.047829	  0.068839	  0.194473	
14.005	  0.045216	  0.064271	  0.174920	
14.0383	  0.042505	  0.060253	  0.154358	
14.0716	  0.039755	  0.057158	  0.133805	
14.1048	  0.037031	  0.055140	  0.114662	
14.1381	  0.034440	  0.054172	  0.098113	
14.1714	  0.032143	  0.054140	  0.084706	
14.2046	  0.030282	  0.054867	  0.074187	
14.2379	  0.028857	  0.056095	  0.065632	
14.2712	  0.027711	  0.057490	  0.057874	
14.3044	  0.026646	  0.058737	  0.050127	
14.3377	  0.025585	  0.059671	  0.042420	
14.371	  0.024616	  0.060306	  0.035516	
14.4042	  0.023885	  0.060714	  0.030368	
14.4375	  0.023446	  0.060854	  0.027555	
14.4708	  0.023201	  0.060539	  0.027088	
14.504	  0.022969	  0.059588	  0.028566	
14.5373	  0.022608	  0.057993	  0.031411	
14.5706	  0.022092	  0.055936	  0.034933	
14.6038	  0.021502	  0.053641	  0.038284	
14.6371	  0.020959	  0.051246	  0.040552	
14.6704	  0.020553	  0.048810	  0.041108	
14.7036	  0.020316	  0.046427	  0.039962	
14.7369	  0.020231	  0.044298	  0.037783	
14.7702	  0.020277	  0.042681	  0.035493	
14.8034	  0.020461	  0.041767	  0.033808	
14.8367	  0.020815	  0.041620	  0.033062	
14.87	  0.021377	  0.042207	  0.033360	
14.9032	  0.022156	  0.043471	  0.034742	
14.9365	  0.023111	  0.045347	  0.037140	
14.9698	  0.024141	  0.047698	  0.040216	
15.003	  0.025108	  0.050236	  0.043370	
15.0363	  0.025873	  0.052519	  0.046004	
15.0696	  0.026362	  0.054072	  0.047837	
15.1028	  0.026588	  0.054573	  0.048979	
15.1361	  0.026633	  0.054002	  0.049732	
15.1694	  0.026594	  0.052638	  0.050317	
15.2026	  0.026533	  0.050941	  0.050708	
15.2359	  0.026455	  0.049413	  0.050647	
15.2692	  0.026314	  0.048468	  0.049781	
15.3024	  0.026045	  0.048320	  0.047877	
15.3357	  0.025625	  0.048880	  0.045023	
15.369	  0.025125	  0.049761	  0.041693	
15.4022	  0.024689	  0.050459	  0.038564	
15.4355	  0.024446	  0.050619	  0.036164	
15.4687	  0.024419	  0.050222	  0.034612	
15.502	  0.024525	  0.049541	  0.033658	
15.5353	  0.024652	  0.048973	  0.033017	
15.5685	  0.024740	  0.048875	  0.032678	
15.6018	  0.024790	  0.049490	  0.032891	
15.6351	  0.024808	  0.050906	  0.033865	
15.6683	  0.024777	  0.052991	  0.035486	
15.7016	  0.024691	  0.055357	  0.037304	
15.7349	  0.024597	  0.057404	  0.038771	
15.7681	  0.024579	  0.058506	  0.039514	
15.8014	  0.024701	  0.058254	  0.039445	
15.8347	  0.024960	  0.056628	  0.038712	
15.8679	  0.025295	  0.053997	  0.037590	
15.9012	  0.025628	  0.050954	  0.036400	
15.9345	  0.025879	  0.048065	  0.035443	
15.9677	  0.025963	  0.045703	  0.034933	
16.001	  0.025795	  0.044030	  0.034991	
16.0343	  0.025348	  0.043111	  0.035710	
16.0675	  0.024717	  0.043015	  0.037240	
16.1008	  0.024113	  0.043815	  0.039755	
16.1341	  0.023756	  0.045499	  0.043309	
16.1673	  0.023753	  0.047889	  0.047706	
16.2006	  0.024037	  0.050656	  0.052506	
